<?xml version="1.0" encoding="utf-8"?>
<!-- Generator: Adobe Illustrator 21.0.2, SVG Export Plug-In . SVG Version: 6.00 Build 0)  -->
<svg version="1.1" id="Layer_1" xmlns="http://www.w3.org/2000/svg" xmlns:xlink="http://www.w3.org/1999/xlink" x="0px" y="0px"
	 viewBox="0 0 171 40" style="enable-background:new 0 0 171 40;" xml:space="preserve">
<style type="text/css">
	.st0{fill:url(#SVGID_1_);}
	.st1{fill:url(#SVGID_2_);}
	.st2{fill:#FFFFFF;}
</style>
<g>
	<g>
		
			<linearGradient id="SVGID_1_" gradientUnits="userSpaceOnUse" x1="57.6375" y1="34.9051" x2="57.6375" y2="19.9421" gradientTransform="matrix(0.9867 -0.1628 -0.1628 -0.9867 -26.1153 66.9533)">
			<stop  offset="2.686769e-02" style="stop-color:#FFFFFF;stop-opacity:0"/>
			<stop  offset="0.5866" style="stop-color:#E0EA9F;stop-opacity:0.5752"/>
			<stop  offset="1" style="stop-color:#CADC5C"/>
		</linearGradient>
		<path class="st0" d="M41.7,33.8c-10,1.2-19.5-2.5-25.8-9.1L0.4,27.2c7.5,7.8,20.8,11.7,35.1,9.4c6-1,11.5-3,16.2-5.7l0,0
			C48.7,32.3,45.3,33.4,41.7,33.8z"/>
		
			<linearGradient id="SVGID_2_" gradientUnits="userSpaceOnUse" x1="78.3327" y1="14.4548" x2="77.7523" y2="31.0753" gradientTransform="matrix(0.9867 -0.1628 -0.1628 -0.9867 -26.1153 66.9533)">
			<stop  offset="0" style="stop-color:#7CCEF4;stop-opacity:0"/>
			<stop  offset="1" style="stop-color:#66CDF5"/>
		</linearGradient>
		<path class="st1" d="M30.7,31c11-1.3,21.4,2.3,28.3,9l17.2-2.8C68,29.3,53.4,25.4,37.6,28c-6.6,1.1-12.7,3.2-17.9,6l0,0
			C23.1,32.6,26.7,31.4,30.7,31z"/>
	</g>
	<path class="st2" d="M10.1,22.7H4.3V12.3h5.5c0,0.3,0,0.5-0.1,0.8H5.2v3.7h3.6v0.8H5.2v4.3h4.9C10.1,22.1,10.1,22.4,10.1,22.7z
		 M14.7,22.7h-0.8c-1-2.5-2-5.4-2.8-8c0.2,0,0.6-0.1,0.8-0.1L14,21c0.1,0.3,0.2,0.6,0.2,0.9l0,0c0.1-0.4,0.1-0.6,0.2-0.9l2.2-6.3
		c0.3,0,0.6,0,0.8,0.1C16.6,17.4,15.7,20.1,14.7,22.7z M19.5,12.9c-0.3,0-0.5-0.2-0.5-0.6s0.2-0.6,0.5-0.6S20,12,20,12.3
		C20,12.7,19.8,12.9,19.5,12.9z M19.1,22.7v-8h0.8v8H19.1z M27.2,22.7V22l0,0c-0.8,0.6-1.4,0.8-2.4,0.8c-1.6,0-2.8-1.1-2.8-3.9
		c0-3.2,1.3-4.4,3.5-4.4c0.6,0,1.2,0.1,1.7,0.3v-3.5c0.2,0,0.6-0.1,0.8-0.1v11.4h-0.8V22.7z M27.2,15.6c-0.5-0.2-1.2-0.4-1.7-0.4
		c-1.6,0-2.6,0.8-2.6,3.5c0,2.6,0.8,3.3,2.1,3.3c0.7,0,1.4-0.2,2.2-0.8V15.6z M36,18.6h-5v0.1c0,2.2,0.6,3.3,2.6,3.3
		c0.7,0,1.5-0.2,1.9-0.5c0.1,0.2,0.2,0.5,0.3,0.7c-0.5,0.4-1.4,0.6-2.3,0.6c-2.3,0-3.4-1.3-3.4-4c0-3.1,1.4-4.3,3.1-4.3s2.8,1,2.8,3
		C36.1,17.8,36,18.3,36,18.6z M31.1,18h4.2c0-0.1,0-0.4,0-0.5c0-1.6-0.8-2.2-2-2.2C32,15.2,31.2,16,31.1,18z M42.9,22.7v-5.8
		c0-0.9-0.4-1.5-1.5-1.5c-1,0-1.7,0.3-2.5,0.8v6.6h-0.8v-8c0.2,0,0.6-0.1,0.8-0.1v0.8l0,0c0.8-0.6,1.6-0.9,2.6-0.9
		c1.2,0,2.2,0.5,2.2,2.4v5.8h-0.8V22.7z M49.2,22.8c-2.3,0-3.4-1.4-3.4-4c0-3.1,1.4-4.3,3.2-4.3c0.6,0,1.5,0.1,2,0.4
		c0,0.2-0.1,0.6-0.2,0.8c-0.6-0.3-1.2-0.4-1.8-0.4c-1.4,0-2.4,0.8-2.4,3.2c0,2.8,0.8,3.6,2.5,3.6c0.6,0,1.4-0.2,1.9-0.5
		c0.1,0.2,0.2,0.5,0.2,0.8C50.7,22.7,49.8,22.8,49.2,22.8z M58.4,18.6h-5v0.1c0,2.2,0.6,3.3,2.6,3.3c0.7,0,1.5-0.2,1.9-0.5
		c0.1,0.2,0.2,0.5,0.3,0.7c-0.5,0.4-1.4,0.6-2.3,0.6c-2.3,0-3.4-1.3-3.4-4c0-3.1,1.4-4.3,3.1-4.3c1.7,0,2.8,1,2.8,3
		C58.4,17.8,58.4,18.3,58.4,18.6z M53.4,18h4.2c0-0.1,0-0.4,0-0.5c0-1.6-0.8-2.2-2-2.2C54.3,15.2,53.5,16,53.4,18z M67.3,22.8
		c-0.6,0-1.6-0.1-2.6-0.2V12.4c0.9-0.1,1.8-0.2,2.5-0.2c2,0,3.3,0.8,3.3,2.7c0,1.1-0.7,1.9-1.5,2.3v0.1c1.1,0.4,1.9,1.2,1.9,2.5
		C71,21.9,69.3,22.8,67.3,22.8z M67.4,12.9c-0.5,0-1.1,0-1.9,0.1v4h2.1c1.3,0,2.1-0.8,2.1-2.1S68.9,12.9,67.4,12.9z M67.8,17.7h-2.2
		v4.2C66.4,22,67,22,67.5,22c1.7,0,2.7-0.8,2.7-2.3C70.1,18.5,69.2,17.7,67.8,17.7z M78.9,22.2c0,0.4-0.2,0.6-0.7,0.6
		c-0.6,0-1.2-0.2-1.4-0.8l0,0c-0.8,0.6-1.5,0.8-2.4,0.8c-1.3,0-2.3-0.7-2.3-2.1c0-1.6,0.9-2.3,2.8-2.4l1.9-0.1v-2.6
		c-0.4-0.2-1.1-0.4-1.8-0.4s-1.5,0.1-1.9,0.3C73,15.4,73,15,73,14.8c0.7-0.2,1.2-0.3,2-0.3c0.9,0,2,0.2,2.6,0.7v6.4
		c0,0.4,0.1,0.5,0.4,0.5h0.9V22.2z M76.8,18.9L74.9,19c-1.4,0.1-1.9,0.6-1.9,1.7c0,1,0.4,1.4,1.5,1.4c0.8,0,1.7-0.4,2.3-0.8V18.9z
		 M81.8,22.8c-0.7,0-1.5-0.1-2.1-0.4c0.1-0.2,0.1-0.5,0.2-0.8c0.6,0.3,1.4,0.4,2.1,0.4c1.2,0,1.7-0.5,1.7-1.4c0-2-3.9-1.7-3.9-3.9
		c0-1.4,1.1-2.3,2.7-2.3c0.5,0,1.2,0.1,1.8,0.2c0,0.2-0.1,0.6-0.2,0.8c-0.6-0.2-1.2-0.3-1.8-0.3c-1.1,0-1.6,0.5-1.6,1.4
		c0,1.6,3.9,1.5,3.9,3.9C84.6,22.1,83.3,22.8,81.8,22.8z M91.8,18.6h-5v0.1c0,2.2,0.6,3.3,2.6,3.3c0.7,0,1.5-0.2,1.9-0.5
		c0.1,0.2,0.2,0.5,0.3,0.7c-0.5,0.4-1.4,0.6-2.3,0.6c-2.3,0-3.4-1.3-3.4-4c0-3.1,1.4-4.3,3.1-4.3s2.8,1,2.8,3
		C91.9,17.8,91.8,18.3,91.8,18.6z M86.9,18h4.2c0-0.1,0-0.4,0-0.5c0-1.6-0.8-2.2-2-2.2C87.8,15.2,87,16,86.9,18z M98.5,22.7V22l0,0
		c-0.8,0.6-1.4,0.8-2.4,0.8c-1.6,0-2.8-1.1-2.8-3.9c0-3.2,1.3-4.4,3.5-4.4c0.6,0,1.2,0.1,1.7,0.3v-3.5c0.2,0,0.6-0.1,0.8-0.1v11.4
		h-0.8V22.7z M98.5,15.6c-0.5-0.2-1.2-0.4-1.7-0.4c-1.6,0-2.6,0.8-2.6,3.5c0,2.6,0.8,3.3,2.1,3.3c0.7,0,1.4-0.2,2.2-0.8V15.6z
		 M110.8,22.7v-5.1h-5.3v5.1h-0.9V12.3h0.9v4.4h5.3v-4.4h0.9v10.3L110.8,22.7L110.8,22.7z M119.6,18.6h-5v0.1c0,2.2,0.6,3.3,2.6,3.3
		c0.7,0,1.5-0.2,1.9-0.5c0.1,0.2,0.2,0.5,0.3,0.7c-0.5,0.4-1.4,0.6-2.3,0.6c-2.3,0-3.4-1.3-3.4-4c0-3.1,1.4-4.3,3.1-4.3s2.8,1,2.8,3
		C119.6,17.8,119.6,18.3,119.6,18.6z M114.7,18h4.2c0-0.1,0-0.4,0-0.5c0-1.6-0.8-2.2-2-2.2C115.6,15.2,114.7,16,114.7,18z
		 M127.6,22.2c0,0.4-0.2,0.6-0.7,0.6c-0.6,0-1.2-0.2-1.4-0.8l0,0c-0.8,0.6-1.5,0.8-2.4,0.8c-1.3,0-2.3-0.7-2.3-2.1
		c0-1.6,0.9-2.3,2.8-2.4l1.9-0.1v-2.6c-0.4-0.2-1.1-0.4-1.8-0.4s-1.5,0.1-1.9,0.3c-0.1-0.2-0.1-0.6-0.1-0.8c0.7-0.2,1.2-0.3,2-0.3
		c0.9,0,2,0.2,2.6,0.7v6.4c0,0.4,0.1,0.5,0.4,0.5h0.9V22.2z M125.5,18.9l-1.9,0.1c-1.4,0.1-1.9,0.6-1.9,1.7c0,1,0.4,1.4,1.5,1.4
		c0.8,0,1.7-0.4,2.3-0.8V18.9z M129.1,22.7V11.4c0.2,0,0.6-0.1,0.8-0.1v11.4C129.9,22.7,129.1,22.7,129.1,22.7z M135,22.8
		c-1.5,0-2-0.8-2-2.4v-5.1h-1v-0.7h1v-1.8c0.2-0.1,0.6-0.2,0.8-0.2v1.9h2c0,0.2,0,0.5-0.1,0.7h-1.9v5.2c0,1.1,0.3,1.5,1.1,1.5
		c0.4,0,0.8-0.1,1.2-0.2c0.1,0.2,0.1,0.5,0.1,0.8C135.9,22.7,135.4,22.8,135,22.8z M142.6,22.7v-5.8c0-1-0.5-1.5-1.5-1.5
		c-0.9,0-1.7,0.2-2.5,0.8v6.6h-0.8V11.4c0.2,0,0.6-0.1,0.8-0.1v4.2l0,0c0.8-0.6,1.6-0.9,2.6-0.9c1.2,0,2.2,0.5,2.2,2.4v5.8
		L142.6,22.7L142.6,22.7z M148.9,22.8c-2.3,0-3.4-1.4-3.4-4c0-3.1,1.4-4.3,3.2-4.3c0.6,0,1.5,0.1,2,0.4c0,0.2-0.1,0.6-0.2,0.8
		c-0.6-0.3-1.2-0.4-1.8-0.4c-1.4,0-2.4,0.8-2.4,3.2c0,2.8,0.8,3.6,2.5,3.6c0.6,0,1.4-0.2,1.9-0.5c0.1,0.2,0.2,0.5,0.2,0.8
		C150.4,22.7,149.5,22.8,148.9,22.8z M158.7,22.2c0,0.4-0.2,0.6-0.7,0.6c-0.6,0-1.2-0.2-1.4-0.8l0,0c-0.8,0.6-1.5,0.8-2.4,0.8
		c-1.3,0-2.3-0.7-2.3-2.1c0-1.6,0.9-2.3,2.8-2.4l1.9-0.1v-2.6c-0.4-0.2-1.1-0.4-1.8-0.4s-1.5,0.1-1.9,0.3c-0.1-0.2-0.1-0.6-0.1-0.8
		c0.7-0.2,1.2-0.3,2-0.3c0.9,0,2,0.2,2.6,0.7v6.4c0,0.4,0.1,0.5,0.4,0.5h0.9V22.2z M156.6,18.9l-1.9,0.1c-1.4,0.1-1.9,0.6-1.9,1.7
		c0,1,0.4,1.4,1.5,1.4c0.8,0,1.7-0.4,2.3-0.8L156.6,18.9L156.6,18.9z M163.8,15.4c-0.2,0-0.4-0.1-0.7-0.1c-0.5,0-1.1,0.1-2,1.1v6.2
		h-0.8v-8c0.2,0,0.6-0.1,0.8-0.1v1l0,0c1-1,1.6-1.1,2.1-1.1c0.2,0,0.5,0,0.7,0.1C163.8,14.8,163.8,15.2,163.8,15.4z M170.6,18.6h-5
		v0.1c0,2.2,0.6,3.3,2.6,3.3c0.7,0,1.5-0.2,1.9-0.5c0.1,0.2,0.2,0.5,0.3,0.7c-0.5,0.4-1.4,0.6-2.3,0.6c-2.3,0-3.4-1.3-3.4-4
		c0-3.1,1.4-4.3,3.1-4.3c1.7,0,2.8,1,2.8,3C170.6,17.8,170.6,18.3,170.6,18.6z M165.6,18h4.2c0-0.1,0-0.4,0-0.5c0-1.6-0.8-2.2-2-2.2
		C166.5,15.2,165.7,16,165.6,18z M63,18h-2.6v0.7H63V18z M4.5,8.7V0.1h0.7v8.6C5.2,8.7,4.5,8.7,4.5,8.7z M13.4,8.7
		c-0.2,0.1-0.4,0.1-0.6,0.1L8.6,1.9C8.5,1.7,8.2,1.3,8.1,1l0,0c0,0.3,0.1,0.7,0.1,0.9v6.8H7.5V0.2C7.7,0.1,8,0.1,8.2,0.1l4,6.6
		c0.2,0.3,0.3,0.6,0.4,0.9h0.1c0-0.2-0.1-0.7-0.1-0.9V0.1h0.7v8.6H13.4z M17.4,8.8c-0.7,0-1.6-0.1-2.3-0.4c0-0.2,0.1-0.5,0.2-0.7
		C16,8,16.7,8.1,17.4,8.1c1.2,0,1.9-0.5,1.9-1.6c0-2.2-4.2-2-4.2-4.4c0-1.4,1.1-2.2,2.7-2.2c0.5,0,1.3,0.1,1.8,0.2
		c0,0.1-0.1,0.5-0.2,0.7c-0.5-0.2-1.1-0.2-1.7-0.2c-1.6,0-1.9,0.6-1.9,1.5C15.9,4,20,3.8,20,6.6C20,7.8,19.1,8.8,17.4,8.8z
		 M26.1,0.8h-2.4v7.9H23V0.8h-2.4V0.1h5.6C26.1,0.3,26.1,0.5,26.1,0.8z M27.3,8.7V0.1H28v8.6C28,8.7,27.3,8.7,27.3,8.7z M34.8,0.8
		h-2.4v7.9h-0.7V0.8h-2.4V0.1h5.6C34.9,0.3,34.8,0.5,34.8,0.8z M38.9,8.8c-2,0-2.9-1-2.9-3.1V0.1h0.7v5.4c0,1.9,0.5,2.6,2.2,2.6
		c1.5,0,2.2-0.7,2.2-2.6V0.1h0.7v5.6C41.8,7.8,40.8,8.8,38.9,8.8z M48.5,0.8h-2.4v7.9h-0.7V0.8H43V0.1h5.6
		C48.6,0.3,48.5,0.5,48.5,0.8z M54.5,8.7h-4.7V0.1h4.6c0,0.2,0,0.4-0.1,0.6h-3.8v3.1h3v0.6h-3V8h4.1C54.5,8.3,54.5,8.5,54.5,8.7z
		 M62.9,0.8H59V4h3.2v0.6H59v4.1h-0.7V0.1H63C63,0.4,63,0.6,62.9,0.8z M67.4,8.8c-2.2,0-3.4-1.5-3.4-4.4C64,1.6,65.2,0,67.4,0
		c2.2,0,3.4,1.5,3.4,4.4C70.8,7.4,69.5,8.8,67.4,8.8z M67.4,0.6c-1.7,0-2.6,1-2.6,3.8c0,2.6,0.8,3.8,2.6,3.8c1.8,0,2.6-1.1,2.6-3.8
		C70,1.6,69.1,0.6,67.4,0.6z M77.3,8.8l-0.8-1.5c-0.5-1-1.1-1.9-1.6-2.3h-1.6v3.7h-0.7V0.2C73.4,0.1,74.1,0,74.7,0
		c1.5,0,2.7,0.6,2.7,2.4c0,1.2-0.7,2.1-1.9,2.3c0.4,0.3,1.1,1.1,1.6,2.1l1,1.8C77.9,8.7,77.6,8.7,77.3,8.8z M74.7,0.6
		c-0.4,0-1,0.1-1.4,0.1v3.6h1.3c1.4,0,2.1-0.6,2.1-1.9S75.9,0.6,74.7,0.6z"/>
</g>
</svg>
